<svg xmlns="http://www.w3.org/2000/svg" xmlns:xlink="http://www.w3.org/1999/xlink" width="500" zoomAndPan="magnify" viewBox="0 0 375 374.999991" height="500" preserveAspectRatio="xMidYMid meet" version="1.0"><defs><g/></defs><g fill="#ff0000" fill-opacity="1"><g transform="translate(16.181118, 219.5498)"><g><path d="M 1.046875 -91.28125 L 45.375 -91.28125 L 45.375 -78.234375 L 30.375 -78.234375 L 30.375 0 L 16.03125 0 L 16.03125 -78.234375 L 1.046875 -78.234375 Z M 1.046875 -91.28125 "/></g></g></g><g fill="#ff0000" fill-opacity="1"><g transform="translate(66.375167, 219.5498)"><g><path d="M 19.5625 -52.8125 L 39.25 -52.8125 L 39.25 -39.765625 L 19.5625 -39.765625 L 19.5625 -13.046875 L 44.328125 -13.046875 L 44.328125 0 L 5.21875 0 L 5.21875 -91.28125 L 44.328125 -91.28125 L 44.328125 -78.234375 L 19.5625 -78.234375 Z M 19.5625 -52.8125 "/></g></g></g><g fill="#ff0000" fill-opacity="1"><g transform="translate(118.1337, 219.5498)"><g><path d="M 18 -66.109375 L 18 0 L 5.078125 0 L 5.078125 -91.28125 L 23.078125 -91.28125 L 37.8125 -36.640625 L 37.8125 -91.28125 L 50.59375 -91.28125 L 50.59375 0 L 35.859375 0 Z M 18 -66.109375 "/></g></g></g><g fill="#ff0000" fill-opacity="1"><g transform="translate(177.584231, 219.5498)"><g><path d="M 19.5625 -50.71875 L 38.078125 -50.71875 L 38.078125 -37.6875 L 19.5625 -37.6875 L 19.5625 0 L 5.21875 0 L 5.21875 -91.28125 L 43.15625 -91.28125 L 43.15625 -78.234375 L 19.5625 -78.234375 Z M 19.5625 -50.71875 "/></g></g></g><g fill="#ff0000" fill-opacity="1"><g transform="translate(226.213813, 219.5498)"><g><path d="M 5.21875 -91.28125 L 19.5625 -91.28125 L 19.5625 -13.046875 L 43.15625 -13.046875 L 43.15625 0 L 5.21875 0 Z M 5.21875 -91.28125 "/></g></g></g><g fill="#ff0000" fill-opacity="1"><g transform="translate(274.191511, 219.5498)"><g><path d="M 5.21875 -91.28125 L 19.5625 -91.28125 L 19.5625 0 L 5.21875 0 Z M 5.21875 -91.28125 "/></g></g></g><g fill="#ff0000" fill-opacity="1"><g transform="translate(302.74364, 219.5498)"><g><path d="M 53.0625 -91.28125 L 38.078125 -46.9375 L 54.109375 0 L 38.984375 0 L 27.25 -36.125 L 15.390625 0 L 1.953125 0 L 18 -46.9375 L 3 -91.28125 L 17.859375 -91.28125 L 28.6875 -57.625 L 39.765625 -91.28125 Z M 53.0625 -91.28125 "/></g></g></g></svg>